<svg xmlns="http://www.w3.org/2000/svg" width="264mm" height="56mm" viewBox="0 0 264 56"><path d="M0 49.644l16.95-48.54L35.441 56 11.75 43.865l1.412-4.623 12.52 6.228-8.346-28.058L5.008 51.827zM52.431 5.727L77.407.398l.128 6.164-9.053 2.118.707 42.184-5.458 1.091-.963-42.311-9.888 1.284zM94.45 2.71l6.742-1.477.77 17.913 13.035-5.65.385 6.228-13.034 6.613.45 23.82-6.55 1.862zm22.73-.129l6.163-1.67 1.605 48.476-6.035 1.54zM161.443.526l2.697 4.816-10.209 10.08 10.209 10.915-10.787 11.043 12.52 9.76-2.375 4.943-18.812-13.996 11.493-11.557-10.98-11.814zM183.653.59l19.903 26.517 1.22-21.765 5.073-1.413-.193 46.87-5.33.77-.577-13.354-14.382-19.326-.578 31.525-5.907 1.541zM227.223 49.644l16.95-48.54L262.666 56l-23.692-12.135 1.412-4.623 12.52 6.228-8.346-28.058-12.328 34.415z" fill="#FFF" /></svg>
