<svg width="490" height="490" xmlns="http://www.w3.org/2000/svg"><path d="M84.65 401.41zM393.836 120H95.073C83.987 120 75 132.99 75 149.015v193.061c0 16.025 8.987 29.016 20.073 29.016h298.763c11.085 0 20.073-12.99 20.073-29.016V149.015c0-16.025-8.988-29.015-20.073-29.015zM138.38 312.332c0 11.82-6.919 21.402-15.453 21.402-8.535 0-15.454-9.582-15.454-21.402V178.76c0-11.82 6.919-21.402 15.454-21.402 8.534 0 15.453 9.582 15.453 21.402v133.572zm60.764 0c0 11.82-6.917 21.402-15.453 21.402-8.535 0-15.454-9.582-15.454-21.402V178.76c0-11.82 6.92-21.402 15.454-21.402s15.453 9.582 15.453 21.402v133.572zm60.765 0c0 11.82-6.92 21.402-15.454 21.402S229 324.152 229 312.332V178.76c0-11.82 6.92-21.402 15.454-21.402s15.454 9.582 15.454 21.402v133.572zm60.765 0c0 11.82-6.92 21.402-15.454 21.402-8.535 0-15.453-9.582-15.453-21.402V178.76c0-11.82 6.918-21.402 15.453-21.402 8.534 0 15.454 9.582 15.454 21.402v133.572zm60.763 0c0 11.82-6.918 21.402-15.452 21.402-8.536 0-15.455-9.582-15.455-21.402V178.76c0-11.82 6.919-21.402 15.455-21.402 8.534 0 15.452 9.582 15.452 21.402v133.572z" fill="#fff"/></svg>
