<svg width="490" height="490" xmlns="http://www.w3.org/2000/svg"><path d="M13.95 401.41zM460.893 120H29.016C12.991 120 0 132.99 0 149.015v193.061c0 16.025 12.991 29.016 29.016 29.016h431.877c16.024 0 29.016-12.99 29.016-29.016V149.015C489.908 132.99 476.917 120 460.893 120zM91.618 312.332c0 11.82-10.002 21.402-22.339 21.402-12.338 0-22.339-9.582-22.339-21.402V178.76c0-11.82 10.001-21.402 22.339-21.402 12.337 0 22.339 9.582 22.339 21.402v133.572zm87.837 0c0 11.82-10 21.402-22.338 21.402-12.338 0-22.34-9.582-22.34-21.402V178.76c0-11.82 10.002-21.402 22.34-21.402s22.338 9.582 22.338 21.402v133.572zm87.838 0c0 11.82-10.002 21.402-22.339 21.402s-22.339-9.582-22.339-21.402V178.76c0-11.82 10.002-21.402 22.339-21.402s22.339 9.582 22.339 21.402v133.572zm87.839 0c0 11.82-10.003 21.402-22.339 21.402-12.339 0-22.339-9.582-22.339-21.402V178.76c0-11.82 10-21.402 22.339-21.402 12.336 0 22.339 9.582 22.339 21.402v133.572zm87.836 0c0 11.82-10 21.402-22.337 21.402-12.339 0-22.341-9.582-22.341-21.402V178.76c0-11.82 10.002-21.402 22.341-21.402 12.337 0 22.337 9.582 22.337 21.402v133.572z" fill="#fff"/></svg>
