<svg xmlns="http://www.w3.org/2000/svg" viewBox="0 0 500 625"><path d="M460.36 136.635L322.075 77.008a6.004 6.004 0 0 0-4.722-.013L39.638 194.978a6 6 0 0 0-3.654 5.516v158.68a6 6 0 0 0 3.644 5.518l139.032 59.366a5.845 5.845 0 0 0 .673.245c.561.167 1.138.25 1.713.25h.057c.006-.005.01 0 .016 0l.015-.001a5.964 5.964 0 0 0 1.768-.293c.004 0 .008-.005.014-.004.169-.056.336-.118.5-.189l276.918-117.772a5.999 5.999 0 0 0 3.651-5.521V142.16a6.004 6.004 0 0 0-3.625-5.525zM47.984 209.588L98 230.957v145.611l-50.016-21.356V209.588zm127.063 199.879L110 381.692V236.084l65.047 27.791v145.592zm6.005-156.075l-123.76-52.876 262.39-111.471 123.061 53.062-261.691 111.285zm270.932 43.411L187.047 409.48V263.883l264.938-112.667v145.587z"/><path d="M124.126 332.26a6 6 0 0 0 6-6v-28.871a6 6 0 0 0-12 0v28.871a6 6 0 0 0 6 6zM83.926 280.861a6 6 0 0 0-6 6v28.873a6 6 0 0 0 12 0v-28.873a6 6 0 0 0-6-6zM216.961 385.436a6 6 0 0 0 6-6V271.791a6 6 0 0 0-12 0v107.645a6 6 0 0 0 6 6zM252.076 370.704a6 6 0 0 0 6-6V257.061a6 6 0 0 0-12 0v107.644a6 6 0 0 0 6 5.999zM287.189 355.975a6 6 0 0 0 6-6V242.33a6 6 0 0 0-12 0v107.645a6 6 0 0 0 6 6zM322.304 341.242a6 6 0 0 0 6-6V227.599a6 6 0 0 0-12 0v107.643a6 6 0 0 0 6 6zM357.419 326.512a6 6 0 0 0 6-6V212.868a6 6 0 0 0-12 0v107.644a6 6 0 0 0 6 6zM392.533 311.781a6 6 0 0 0 6-6V198.138a6 6 0 0 0-12 0v107.643a6 6 0 0 0 6 6zM427.647 297.051a6 6 0 0 0 6-6V183.407a6 6 0 0 0-12 0v107.644a6 6 0 0 0 6 6z"/></svg>