<svg xmlns="http://www.w3.org/2000/svg" viewBox="0 0 100 100" x="0px" y="0px"><path d="M47.77,49s2.33-4.85-1.46-8.48a6.56,6.56,0,0,1,5.07,3s6.17-10.66,21.47-14.11c0,0,15.31-3.61,17.82-5.9a4.77,4.77,0,0,0,2-4.7s-0.37-2.55-4.17-2.35c0,0,3.84-1.84,6.47,1.41,0,0,3.57,5.17-4.94,9.05a37.9,37.9,0,0,1-8.15,1.53c-4.94.43-13.48,3.61-14.3,3.92s-11.32,4.7-15.79,22.41C51.77,54.79,51.3,50.2,47.77,49Zm14.73-.64c-4.55,3.29-4.18,5.8-4.18,5.8a16.63,16.63,0,0,1,8.73-7.11A10.11,10.11,0,0,0,74,40c0.78-4.65-3-4.66-3-4.66C71.14,40.58,67.05,45.09,62.51,48.39ZM96.57,27s-0.84,4.28-9.09,4.81-8.93,2.4-8.93,2.4,8.2-2.3,14.26-1.52S98.71,27.54,96.57,27ZM90,38.3c-4.34-1.2-13.11.63-13.11,0.63,12.8-.26,11.3.65,16,0.83s2.86-3.65,2.86-3.65S94.32,39.5,90,38.3Zm-1.93,6.37c-1-.2-3.86-1.39-5.72-1.8a20.12,20.12,0,0,0-5.46.16,28.09,28.09,0,0,1,9.81,2.49c4.68,2.27,5.47-.84,5.47-0.84A27.68,27.68,0,0,1,88.05,44.68Zm-4.84,4.23c-5.7-2.7-8.42-2.72-8.42-2.72,3.13,1.25,5.07,2.8,7.66,3.62s3.86-.49,3.86-0.49A21.27,21.27,0,0,1,83.21,48.91Zm-9.11.71-0.86.8s3.94,2,6,1.16C79.24,51.57,74.7,50.36,74.11,49.61ZM72.56,52a3.74,3.74,0,0,1-4.13,3.42c-3.94-.05-5.22.31-7,1.62a9.87,9.87,0,0,1,4.62-.5c1.93,0.47,5,.86,6.27.37S75.91,54.18,72.56,52ZM60.17,60s-3.64-2.82-7.54-1c0,0,4.41-.69,7,2.17s9,1.84,6.63-3C66.21,58.16,66.8,61.86,60.17,60ZM52.63,72.89c8.23,3.57,9.91-4.39,9.91-4.39C57.14,73.44,52.87,70,52.87,70c1.37-4.51-.63-6.82-0.63-6.82C51.1,69.6,48.44,72,48.44,72c3.13,12.81,15.44,2.47,15.44,2.47C54.63,77.47,52.63,72.89,52.63,72.89Zm-8.15.42a11,11,0,0,0-3.16.16c-1.36.34-.89,5.85-0.89,5.85h0.84S42.39,74.59,44.48,73.31Zm-1,6.62a1.22,1.22,0,0,1-1,.57,2.68,2.68,0,0,1,.67,3.37S46,82,43.51,79.92Zm-4,0s-2.84,1.53-.25,4.13a3.37,3.37,0,0,1,.92-3.29A1.35,1.35,0,0,1,39.56,79.92ZM38.11,78.4s-2.92.07-2.08,3.49c0,0,1-2.26,2.37-2.44A1.14,1.14,0,0,1,38.11,78.4Zm-1-6.34c-8-3.61-9.59-14.58-9.59-14.58-2.12,10.11,3.29,16.32,3.29,16.32-0.18.59-3.57,3.39-3.57,3.39a0.63,0.63,0,0,1,.51.71C34.21,72.73,37.14,72.07,37.14,72.07ZM26.63,78.4s-3.08.31-1.27,3.77c0,0,.21-2.63,1.7-2.86A1,1,0,0,1,26.63,78.4Zm-0.71-.71a0.85,0.85,0,0,1,.18-1s-2.61-1-3.25,2.55C22.85,79.22,24.56,77.38,25.93,77.69ZM14.19,20.5s-2.08-2.7-4.55.55,4.55,11.09,4.55,11.09S6.9,21.83,14.19,20.5Zm4.7,15.16s-3-3.68-2.35-5.53c0,0,1.41-3.06-.86-2.08C15.68,28.06,12.15,30.37,18.89,35.66Zm8.58,18.61C21.2,41,32.29,37.5,32.29,37.5,27.83,37.7,25,43,25,43a20,20,0,0,0-4.55-3.27c-5-1-17.16-8.72-17-16.4s5.63-5.56,5.63-5.56c-3.94-2.47-5.86.94-5.86,0.94-1.45,3-1.49,6.19-.51,10S13.13,39.46,13.13,39.46c4.86,2.27,8.62,7.17,8.62,7.17C23.12,50.55,27.47,54.28,27.47,54.28Zm9.44-11.4c2.49-.87,5.13-0.36,6.57,1.5,1.56,2-.3,6.18-3.75,9.17,5.05-2.57,6.58-7.73,4.86-10S39.73,41.26,36.92,42.87ZM27.36,44c-1.43,2.21-.17,6.47,4.25,8.71-3-2.62-4.64-6.25-3.28-8a5,5,0,0,1,5.74-1.32C31.63,42,28.61,42.06,27.36,44Zm4.48,1.57a2,2,0,1,0,2,2A2,2,0,0,0,31.84,45.56ZM39.1,49.3a2,2,0,1,0-2-2A2,2,0,0,0,39.1,49.3Zm-3.83,3.16a5.86,5.86,0,0,1,1.43-1.72,2.38,2.38,0,0,1-1.43-1.29,2.38,2.38,0,0,1-1.43,1.29A5.86,5.86,0,0,1,35.27,52.45Z" fill="#222" stroke="#222" /></svg>
